<svg width="144" height="144" viewBox="0 0 144 144" fill="none" xmlns="http://www.w3.org/2000/svg">
  <!-- Background -->
  <rect width="144" height="144" rx="20" fill="#2563eb"/>
  
  <!-- Ship/Container -->
  <rect x="24" y="48" width="96" height="48" rx="4" fill="white"/>
  
  <!-- Container details -->
  <rect x="30" y="54" width="18" height="36" rx="2" fill="#1d4ed8"/>
  <rect x="54" y="54" width="18" height="36" rx="2" fill="#3b82f6"/>
  <rect x="78" y="54" width="18" height="36" rx="2" fill="#1d4ed8"/>
  <rect x="102" y="54" width="18" height="36" rx="2" fill="#3b82f6"/>
  
  <!-- Ship base -->
  <path d="M20 96 L124 96 L120 108 L24 108 Z" fill="#1e40af"/>
  
  <!-- Waves -->
  <path d="M12 112 Q18 108 24 112 Q30 116 36 112 Q42 108 48 112" stroke="white" stroke-width="2" fill="none" opacity="0.7"/>
  <path d="M96 112 Q102 108 108 112 Q114 116 120 112 Q126 108 132 112" stroke="white" stroke-width="2" fill="none" opacity="0.7"/>
  
  <!-- Navigation/Signal icon -->
  <circle cx="72" cy="32" r="3" fill="white"/>
  <path d="M66 26 L72 20 L78 26" stroke="white" stroke-width="2" fill="none"/>
</svg>
