<svg width="152" height="152" viewBox="0 0 152 152" fill="none" xmlns="http://www.w3.org/2000/svg">
  <!-- Background -->
  <rect width="152" height="152" rx="20" fill="#2563eb"/>
  
  <!-- Ship/Container -->
  <rect x="26" y="51" width="100" height="50" rx="4" fill="white"/>
  
  <!-- Container details -->
  <rect x="32" y="57" width="18" height="38" rx="2" fill="#1d4ed8"/>
  <rect x="56" y="57" width="18" height="38" rx="2" fill="#3b82f6"/>
  <rect x="80" y="57" width="18" height="38" rx="2" fill="#1d4ed8"/>
  <rect x="104" y="57" width="18" height="38" rx="2" fill="#3b82f6"/>
  
  <!-- Ship base -->
  <path d="M22 101 L130 101 L126 113 L26 113 Z" fill="#1e40af"/>
  
  <!-- Waves -->
  <path d="M14 118 Q20 114 26 118 Q32 122 38 118 Q44 114 50 118" stroke="white" stroke-width="2" fill="none" opacity="0.7"/>
  <path d="M102 118 Q108 114 114 118 Q120 122 126 118 Q132 114 138 118" stroke="white" stroke-width="2" fill="none" opacity="0.7"/>
  
  <!-- Navigation/Signal icon -->
  <circle cx="76" cy="34" r="3" fill="white"/>
  <path d="M70 28 L76 22 L82 28" stroke="white" stroke-width="2" fill="none"/>
</svg>
