<svg width="192" height="192" viewBox="0 0 192 192" fill="none" xmlns="http://www.w3.org/2000/svg">
  <!-- Background -->
  <rect width="192" height="192" rx="24" fill="#2563eb"/>
  
  <!-- Ship/Container -->
  <rect x="32" y="64" width="128" height="64" rx="6" fill="white"/>
  
  <!-- Container details -->
  <rect x="40" y="72" width="24" height="48" rx="3" fill="#1d4ed8"/>
  <rect x="72" y="72" width="24" height="48" rx="3" fill="#3b82f6"/>
  <rect x="104" y="72" width="24" height="48" rx="3" fill="#1d4ed8"/>
  <rect x="136" y="72" width="16" height="48" rx="3" fill="#3b82f6"/>
  
  <!-- Ship base -->
  <path d="M24 128 L168 128 L160 144 L32 144 Z" fill="#1e40af"/>
  
  <!-- Waves -->
  <path d="M16 150 Q24 144 32 150 Q40 156 48 150 Q56 144 64 150" stroke="white" stroke-width="3" fill="none" opacity="0.7"/>
  <path d="M128 150 Q136 144 144 150 Q152 156 160 150 Q168 144 176 150" stroke="white" stroke-width="3" fill="none" opacity="0.7"/>
  
  <!-- Navigation/Signal icon -->
  <circle cx="96" cy="40" r="4" fill="white"/>
  <path d="M88 32 L96 24 L104 32" stroke="white" stroke-width="3" fill="none"/>
</svg>
